<svg xmlns="http://www.w3.org/2000/svg" width="116" height="24" fill="none"><path fill="#333" d="M8.434 3.645c-1.368 0-2.426.515-3.176 1.546-.75 1.024-1.125 2.454-1.125 4.29 0 3.82 1.433 5.73 4.3 5.73 1.204 0 2.66-.3 4.372-.902v3.046c-1.407.586-2.977.88-4.711.88-2.492 0-4.399-.755-5.719-2.262-1.32-1.516-1.98-3.688-1.98-6.516 0-1.781.324-3.34.972-4.676.649-1.343 1.578-2.37 2.79-3.082C5.374.98 6.8.621 8.433.621c1.664 0 3.336.402 5.015 1.207l-1.172 2.953c-.64-.304-1.285-.57-1.933-.797a5.769 5.769 0 0 0-1.91-.34Zm15.058 1.007c.485 0 .887.035 1.207.106l-.27 3.351a4.094 4.094 0 0 0-1.054-.117c-1.14 0-2.031.293-2.672.88-.633.585-.95 1.405-.95 2.46V18H16.18V4.898h2.707l.527 2.204h.176a4.895 4.895 0 0 1 1.64-1.77 4.063 4.063 0 0 1 2.262-.68Zm1.711.246h3.914l2.473 7.372c.21.64.355 1.398.433 2.273h.07c.087-.805.255-1.563.505-2.273l2.425-7.372h3.832l-5.542 14.778c-.508 1.367-1.235 2.39-2.18 3.07-.938.68-2.035 1.02-3.293 1.02a8.297 8.297 0 0 1-1.817-.2v-2.835c.43.101.899.152 1.407.152.633 0 1.183-.195 1.652-.586.477-.383.848-.965 1.113-1.746l.211-.645-5.203-13.008Zm22.735 13.336c-1.54 0-2.747-.558-3.622-1.675h-.187c.125 1.093.187 1.726.187 1.898v5.309h-3.574V4.898h2.906l.504 1.7h.164c.836-1.297 2.075-1.946 3.715-1.946 1.547 0 2.758.598 3.633 1.793.875 1.196 1.313 2.856 1.313 4.98 0 1.4-.207 2.614-.621 3.645-.407 1.032-.989 1.817-1.747 2.356-.757.539-1.648.808-2.672.808ZM46.883 7.512c-.883 0-1.528.273-1.934.82-.406.54-.617 1.434-.633 2.684v.386c0 1.407.207 2.414.621 3.024.422.61 1.086.914 1.993.914 1.601 0 2.402-1.32 2.402-3.961 0-1.29-.2-2.254-.598-2.895-.39-.648-1.007-.972-1.851-.972Zm14.566 7.875c.625 0 1.375-.137 2.25-.41v2.66c-.89.398-1.984.597-3.281.597-1.43 0-2.473-.359-3.129-1.078-.648-.726-.973-1.812-.973-3.258V7.582h-1.71V6.07l1.968-1.195 1.032-2.766h2.285V4.9h3.668v2.683H59.89v6.316c0 .508.14.883.422 1.125.289.243.667.364 1.136.364Zm7.758-3.961c0 1.297.211 2.277.633 2.941.43.664 1.125.996 2.086.996.953 0 1.636-.328 2.05-.984.422-.664.633-1.649.633-2.953 0-1.297-.21-2.27-.632-2.918-.422-.649-1.114-.973-2.075-.973-.953 0-1.64.324-2.062.973-.422.64-.633 1.613-.633 2.918Zm9.059 0c0 2.133-.563 3.8-1.688 5.004-1.125 1.203-2.691 1.804-4.7 1.804-1.257 0-2.366-.273-3.327-.82-.961-.555-1.7-1.348-2.215-2.379-.516-1.031-.773-2.234-.773-3.61 0-2.14.558-3.804 1.675-4.991 1.118-1.188 2.688-1.782 4.711-1.782 1.258 0 2.367.274 3.328.82.961.548 1.7 1.333 2.215 2.356.516 1.024.774 2.223.774 3.598Z"/><path fill="#F5CC3B" d="M80.715 16.324c0-.656.176-1.152.527-1.488.352-.336.864-.504 1.535-.504.649 0 1.149.172 1.5.516.36.343.54.836.54 1.476 0 .617-.18 1.106-.54 1.465-.359.352-.859.527-1.5.527-.656 0-1.164-.171-1.523-.515-.36-.352-.54-.844-.54-1.477Z"/><path fill="#8955F6" d="M93.488 15.434c.906 0 1.57-.258 1.993-.774.421-.523.652-1.433.69-2.73v-.434c0-1.406-.218-2.414-.655-3.023-.43-.61-1.125-.914-2.086-.914-1.68 0-2.52 1.32-2.52 3.96 0 1.313.207 2.293.621 2.942.422.648 1.075.973 1.957.973Zm-1.277 2.8c-1.547 0-2.758-.593-3.633-1.78-.875-1.196-1.312-2.856-1.312-4.981 0-2.141.445-3.813 1.336-5.016.898-1.203 2.125-1.805 3.68-1.805.827 0 1.55.157 2.167.47.617.312 1.16.796 1.63 1.452h.093l.316-1.676h3.024v18.868h-3.586V18.27c0-.477.05-1.133.152-1.97h-.152a3.802 3.802 0 0 1-1.524 1.442c-.633.328-1.363.492-2.191.492ZM112.53 18l-.48-1.676h-.188c-.383.61-.925 1.082-1.629 1.418-.703.328-1.504.492-2.402.492-1.539 0-2.699-.41-3.48-1.23-.782-.828-1.172-2.016-1.172-3.563V4.898h3.574v7.653c0 .945.168 1.656.504 2.133.336.468.871.703 1.605.703 1 0 1.723-.332 2.168-.996.446-.672.668-1.782.668-3.329V4.899h3.574V18h-2.742Z"/></svg>